<svg width="27" height="27" viewBox="0 0 27 27" fill="none" xmlns="http://www.w3.org/2000/svg">
<path d="M22.7812 11.8125H21.5072C21.32 11.8205 21.1355 11.766 20.9827 11.6575C20.8299 11.5491 20.7176 11.3928 20.6634 11.2135L19.2459 6.37879C18.9839 5.50739 18.4471 4.74408 17.7157 4.20274C16.9843 3.66141 16.0974 3.37107 15.1875 3.37504H8.1928C7.35028 3.37524 6.52713 3.62769 5.82937 4.09988C5.13161 4.57207 4.59121 5.24237 4.2778 6.02442L1.87311 12.0404C1.74859 12.3397 1.68547 12.6611 1.68749 12.9854V16.875C1.68752 17.8637 2.03474 18.8209 2.66854 19.5796C3.30235 20.3383 4.18247 20.8503 5.1553 21.0263C5.33054 21.7581 5.74529 22.4103 6.33367 22.8793C6.92204 23.3484 7.65029 23.6074 8.40271 23.6151C9.15513 23.6229 9.88856 23.379 10.4865 22.9221C11.0844 22.4653 11.5125 21.8218 11.7028 21.0938H15.2972C15.4859 21.816 15.9088 22.4553 16.4997 22.9116C17.0905 23.3678 17.816 23.6154 18.5625 23.6154C19.309 23.6154 20.0344 23.3678 20.6253 22.9116C21.2161 22.4553 21.639 21.816 21.8278 21.0938H22.7812C23.4526 21.0938 24.0964 20.8271 24.5711 20.3524C25.0458 19.8777 25.3125 19.2339 25.3125 18.5625V14.3438C25.3125 13.6725 25.0458 13.0286 24.5711 12.5539C24.0964 12.0792 23.4526 11.8125 22.7812 11.8125ZM8.43749 21.9375C8.10373 21.9375 7.77747 21.8386 7.49996 21.6531C7.22245 21.4677 7.00616 21.2042 6.87844 20.8958C6.75072 20.5875 6.7173 20.2482 6.78241 19.9208C6.84752 19.5935 7.00824 19.2928 7.24424 19.0568C7.48025 18.8208 7.78093 18.6601 8.10827 18.595C8.43561 18.5299 8.77491 18.5633 9.08326 18.691C9.39161 18.8187 9.65517 19.035 9.84059 19.3125C10.026 19.59 10.125 19.9163 10.125 20.25C10.125 20.6976 9.9472 21.1268 9.63073 21.4433C9.31426 21.7598 8.88504 21.9375 8.43749 21.9375ZM12.6562 11.8125H3.77155L5.83874 6.65723C6.02631 6.18625 6.35098 5.78245 6.7707 5.49812C7.19042 5.21379 7.68584 5.06205 8.1928 5.06254H12.6562V11.8125ZM14.3437 11.8125V5.06254H15.1875C15.7359 5.05781 16.271 5.23132 16.7123 5.55696C17.1536 5.8826 17.4772 6.34275 17.6344 6.86817L19.0772 11.6944C19.0904 11.7352 19.1074 11.7748 19.1278 11.8125H14.3437ZM18.5625 21.9375C18.2287 21.9375 17.9025 21.8386 17.625 21.6531C17.3475 21.4677 17.1312 21.2042 17.0034 20.8958C16.8757 20.5875 16.8423 20.2482 16.9074 19.9208C16.9725 19.5935 17.1332 19.2928 17.3692 19.0568C17.6052 18.8208 17.9059 18.6601 18.2333 18.595C18.5606 18.5299 18.8999 18.5633 19.2083 18.691C19.5166 18.8187 19.7802 19.035 19.9656 19.3125C20.151 19.59 20.25 19.9163 20.25 20.25C20.25 20.6976 20.0722 21.1268 19.7557 21.4433C19.4393 21.7598 19.01 21.9375 18.5625 21.9375ZM23.625 16.875H22.7812C22.5575 16.875 22.3428 16.7861 22.1846 16.6279C22.0264 16.4697 21.9375 16.2551 21.9375 16.0313C21.9375 15.8075 22.0264 15.5929 22.1846 15.4347C22.3428 15.2764 22.5575 15.1875 22.7812 15.1875H23.625V16.875Z" fill="#0077FF"/>
</svg>
